<svg aria-hidden="true" focusable="false" preserveAspectRatio="xMidYMid meet" xmlns="http://www.w3.org/2000/svg" xmlns:xlink="http://www.w3.org/1999/xlink" version="1.1" id="svg--Yoimo_logo_blue1797__Layer_1" x="0px" y="0px" viewBox="0 0 171.2 47.7" width="171.2" height="47.7" style="enable-background:new 0 0 171.2 47.7;" xml:space="preserve">  <style type="text/css">  .svg--Yoimo_logo_blue .st0{fill:#000a24;} </style> <g> <path class="st0" d="M8.2,46.8c-2.5,0-4.9-0.7-6.7-1.9l2.2-6c1.1,0.7,2.3,1.1,3.3,1.1c1.7,0,3-1,3-3.3V7.8h8.1v29.2 C18.1,43.5,13.5,46.8,8.2,46.8z"></path> <path class="st0" d="M61,46.8c-3,0-5.4-0.8-7.7-2.7l3.4-5.9c1.3,1.1,2.4,1.5,3.7,1.5c1.7,0,3-0.8,3.7-2.5l0.8-1.6L53.2,7.8h8.4 L69,27.4l6.7-19.5h8.1L71.4,39.4C69.4,44.4,65.9,46.8,61,46.8z"></path> <path class="st0" d="M135.4,18.4v17.8h-8.1V20.8c0-3.6-2.1-5.8-5.5-5.8c-3.9,0.1-6.3,3.1-6.3,7.2v14h-8.1V20.8 c0-3.6-2.1-5.8-5.4-5.8c-4,0.1-6.3,3.1-6.3,7.2v14h-8.1V7.8h8.1v4.9c2-3.5,5.3-5.2,9.6-5.2c4.8,0,8.2,2.4,9.6,6.5 c1.8-4.4,5.4-6.5,10.2-6.5C131.5,7.5,135.4,11.7,135.4,18.4z"></path> <path class="st0" d="M169.7,22c0,8.7-6.1,14.5-15.2,14.5c-9.1,0-15.3-5.9-15.3-14.5c0-8.7,6.1-14.5,15.3-14.5 C163.6,7.6,169.7,13.3,169.7,22z M147.4,22.1c0,4.6,2.9,7.8,7.1,7.8c4.2,0,7.1-3.2,7.1-7.8c0-4.6-2.9-7.8-7.1-7.8 C150.3,14.3,147.4,17.5,147.4,22.1z"></path> <g> <g> <path class="st0" d="M48.5,11.9c-3-3-6.5-4.5-10.5-4.5c-4.3,0-7.9,1.5-10.8,4.5c-2.9,3-4.4,6.5-4.4,10.5c0,4.3,1.5,7.9,4.4,10.8 c2.9,3,6.5,4.4,10.8,4.4c4,0,7.5-1.5,10.5-4.4c3-3,4.5-6.6,4.5-10.8C53,18.5,51.5,15,48.5,11.9z M45.2,30h-7.8 c-2.9,0-5.3-2.4-5.3-5.3v-4.3c0-2.9,2.4-5.3,5.3-5.3h7.8c2.9,0,5.3,2.4,5.3,5.3v4.3C50.5,27.6,48.1,30,45.2,30z"></path> </g> <g> <ellipse class="st0" cx="45.5" cy="20.3" rx="2.3" ry="2.3"></ellipse> </g> <g> <ellipse class="st0" cx="31" cy="2.9" rx="2.3" ry="2.3"></ellipse> </g> <g> <rect x="30.7" y="2.9" class="st0" width="0.6" height="15.2"></rect> </g> </g> </g> </svg>